<?xml version="1.0" encoding="UTF-8" standalone="no"?>
<!-- Created with Inkscape (http://www.inkscape.org/) -->

<svg
   version="1.1"
   id="svg1"
   width="2130.5056"
   height="504.68335"
   viewBox="0 0 2130.5056 504.68336"
   xml:space="preserve"
   xmlns="http://www.w3.org/2000/svg"
   xmlns:svg="http://www.w3.org/2000/svg"><defs
     id="defs1"><clipPath
       clipPathUnits="userSpaceOnUse"
       id="clipPath17"><path
         d="M 24.496,1634.575 H 3173.787 V 24.496 H 24.496 Z"
         transform="translate(-995.37325,-1455.4172)"
         id="path17" /></clipPath><clipPath
       clipPathUnits="userSpaceOnUse"
       id="clipPath19"><path
         d="M 24.496,1634.575 H 3173.787 V 24.496 H 24.496 Z"
         transform="translate(-1110.5823,-1241.9563)"
         id="path19" /></clipPath><clipPath
       clipPathUnits="userSpaceOnUse"
       id="clipPath21"><path
         d="M 24.496,1634.575 H 3173.787 V 24.496 H 24.496 Z"
         transform="translate(-1550.6481,-1374.2742)"
         id="path21" /></clipPath><clipPath
       clipPathUnits="userSpaceOnUse"
       id="clipPath23"><path
         d="M 24.496,1634.575 H 3173.787 V 24.496 H 24.496 Z"
         transform="translate(-1378.9537,-1470.1707)"
         id="path23" /></clipPath><clipPath
       clipPathUnits="userSpaceOnUse"
       id="clipPath25"><path
         d="M 24.496,1634.575 H 3173.787 V 24.496 H 24.496 Z"
         transform="translate(-1441.7526,-1124.3909)"
         id="path25" /></clipPath><clipPath
       clipPathUnits="userSpaceOnUse"
       id="clipPath27"><path
         d="M 24.496,1634.575 H 3173.787 V 24.496 H 24.496 Z"
         transform="translate(-1819.9152,-1218.4431)"
         id="path27" /></clipPath><clipPath
       clipPathUnits="userSpaceOnUse"
       id="clipPath29"><path
         d="M 24.496,1634.575 H 3173.787 V 24.496 H 24.496 Z"
         transform="translate(-1998.8331,-1473.3977)"
         id="path29" /></clipPath><clipPath
       clipPathUnits="userSpaceOnUse"
       id="clipPath31"><path
         d="M 24.496,1634.575 H 3173.787 V 24.496 H 24.496 Z"
         transform="translate(-2137.0873,-1286.2161)"
         id="path31" /></clipPath><clipPath
       clipPathUnits="userSpaceOnUse"
       id="clipPath33"><path
         d="M 24.496,1634.575 H 3173.787 V 24.496 H 24.496 Z"
         transform="translate(-2408.6244,-1454.4954)"
         id="path33" /></clipPath></defs><g
     id="g1"
     transform="translate(-1052.0549,-179.58973)"><path
       id="path16"
       d="m 0,0 c -12.955,-17.217 -24.024,-40.269 -33.209,-69.156 -9.191,-28.894 -14.232,-54.712 -15.136,-77.454 5.719,1.844 11.522,4.451 17.395,7.837 5.874,3.379 11.747,7.377 17.621,11.987 5.874,4.611 11.521,9.754 16.943,15.445 5.422,5.684 10.463,11.987 15.136,18.903 4.667,6.915 8.733,14.061 12.199,21.438 3.46,7.376 6.171,15.366 8.133,23.974 1.956,8.601 2.937,17.361 2.937,26.279 0,25.818 -5.577,38.727 -16.717,38.727 C 17.769,17.98 9.488,12.29 0.452,0.922 0.148,0.612 0,0.303 0,0 m 35.693,35.039 c 6.622,0 12.426,-1.001 17.395,-2.997 4.971,-2.002 8.959,-4.769 11.974,-8.298 3.007,-3.537 5.57,-7.147 7.681,-10.835 2.103,-3.688 3.614,-7.765 4.518,-12.218 0.904,-4.459 1.503,-8.147 1.807,-11.065 0.297,-2.924 0.452,-5.762 0.452,-8.529 0,-20.595 -6.255,-41.263 -18.75,-62.01 -12.503,-20.746 -28.691,-38.266 -48.571,-52.558 -19.88,-14.292 -40.212,-22.821 -60.995,-25.588 0,-23.051 -0.53,-46.954 -1.582,-71.691 -1.059,-24.745 -2.033,-43.958 -2.937,-57.63 -0.903,-13.68 -1.511,-21.748 -1.807,-24.204 v -1.384 c -0.607,-4.307 -1.207,-7.686 -1.807,-10.142 -0.608,-2.464 -1.433,-5.303 -2.486,-8.53 -1.058,-3.227 -2.64,-5.604 -4.743,-7.146 -2.111,-1.534 -4.822,-2.305 -8.133,-2.305 -4.518,0 -8.133,1.693 -10.844,5.071 -4.221,4.611 -5.577,12.91 -4.066,24.896 0.904,8.602 2.329,30.731 4.292,66.39 1.956,35.651 3.233,77.526 3.841,125.633 0.6,48.1 -1.66,84.904 -6.778,110.419 -0.904,5.533 -2.414,10.294 -4.518,14.292 -2.111,3.991 -4.674,7.067 -7.681,9.221 -3.014,2.147 -6.177,3.228 -9.488,3.228 -11.747,0 -22.217,-4.15 -31.402,-12.449 -9.191,-8.298 -15.891,-19.824 -20.105,-34.578 v -0.461 c -4.519,-22.439 -4.744,-45.26 -0.678,-68.464 4.066,-23.211 10.463,-40.5 19.202,-51.867 2.104,-2.766 1.73,-5.302 -1.129,-7.607 -2.866,-2.305 -5.352,-2.075 -7.455,0.692 -7.23,9.523 -13.181,23.124 -17.847,40.801 -4.674,17.671 -6.777,36.956 -6.325,57.861 0.451,20.898 4.292,39.03 11.521,54.403 12.947,26.74 34.183,40.11 63.706,40.11 9.637,0 18.073,-3.847 25.302,-11.526 7.229,-7.686 12.199,-18.139 14.91,-31.35 3.911,-19.674 6.622,-46.875 8.133,-81.604 4.518,17.821 9.94,34.268 16.265,49.331 7.229,17.822 14.91,32.733 23.043,44.72 14.458,19.976 29.82,29.968 46.085,29.968"
       style="fill:#ffffff;fill-opacity:1;fill-rule:nonzero;stroke:none"
       transform="matrix(1.3333333,0,0,-1.3333333,1283.1643,227.53707)"
       clip-path="url(#clipPath17)" /><path
       id="path18"
       d="M 0,0 C 0.903,14.443 2.711,28.123 5.421,41.032 4.814,42.257 4.214,43.337 3.614,44.26 2.711,45.484 1.652,46.716 0.452,47.948 -1.963,49.172 -5.125,49.331 -9.037,48.409 -20.784,45.023 -32.305,34.808 -43.601,17.75 -54.896,0.691 -60.544,-18.139 -60.544,-38.728 c 0,-10.762 1.582,-19.133 4.744,-25.126 3.163,-5.994 6.396,-8.99 9.715,-8.99 4.518,0 9.332,2.535 14.458,7.607 5.118,5.071 9.488,11.137 13.102,18.211 v 0.461 c 5.422,9.833 11.296,24.435 17.621,43.798 0,0.303 0.071,0.764 0.226,1.384 C -0.53,-0.771 -0.304,-0.31 0,0 m 118.602,12.448 c 3.163,-1.844 3.84,-4.308 2.033,-7.377 l -3.162,-5.532 c -15.362,-26.741 -27.865,-46.414 -37.501,-59.013 -0.304,-0.31 -0.452,-0.62 -0.452,-0.922 l -0.904,-0.461 c 0,-0.31 -0.155,-0.461 -0.451,-0.461 C 63.099,-80.379 49.7,-89.903 37.953,-89.903 c -10.844,0 -19.584,4.611 -26.206,13.831 -6.629,9.524 -10.695,23.816 -12.199,42.877 -2.711,-7.074 -5.577,-13.529 -8.585,-19.364 -13.257,-24.896 -28.916,-37.344 -46.989,-37.344 -10.243,0 -19.202,4.452 -26.883,13.37 -7.681,8.911 -11.521,22.742 -11.521,41.494 0,24.896 8.21,47.789 24.624,68.695 16.413,20.898 33.053,31.35 49.926,31.35 11.747,0 20.783,-2.924 27.109,-8.759 0.6,-0.31 1.2,-0.771 1.807,-1.384 h 0.452 c 0.6,2.767 2.181,4.992 4.744,6.685 2.556,1.686 5.267,2.687 8.133,2.997 2.859,0.303 5.648,0.151 8.359,-0.461 4.214,-1.231 7.454,-3.688 9.714,-7.376 2.259,-3.689 2.633,-8.148 1.129,-13.371 C 38.553,31.351 36.146,18.441 34.338,4.61 32.531,-9.221 32.079,-22.901 32.982,-36.422 c 0.904,-13.529 3.615,-23.211 8.133,-29.046 3.311,-3.998 7.378,-5.842 12.199,-5.532 2.711,0.922 8.43,6.605 17.169,17.058 l 0.452,0.922 h 0.452 c 9.333,11.987 21.532,31.351 36.597,58.091 l 3.163,5.533 c 1.808,3.068 4.292,3.688 7.455,1.844"
       style="fill:#ffffff;fill-opacity:1;fill-rule:nonzero;stroke:none"
       transform="matrix(1.3333333,0,0,-1.3333333,1436.7763,512.1516)"
       clip-path="url(#clipPath19)" /><path
       id="path20"
       d="m 0,0 c 1.504,-3.076 0.6,-5.46 -2.711,-7.146 -3.318,-1.693 -5.725,-0.85 -7.229,2.536 -4.518,9.523 -13.936,17.058 -28.239,22.59 -14.31,5.533 -28.994,8.299 -44.052,8.299 -14.162,0 -28.69,-1.232 -43.601,-3.688 -14.909,-2.464 -26.812,-4.92 -35.693,-7.377 -8.888,-2.464 -20.861,-6.151 -35.92,-11.065 -38.256,-11.986 -68.831,-18.902 -91.719,-20.746 -6.029,-31.049 -9.036,-64.395 -9.036,-100.046 0,-11.065 0.297,-21.438 0.904,-31.12 0.6,-9.682 1.504,-18.211 2.711,-25.588 1.2,-7.376 2.484,-14.22 3.84,-20.516 1.355,-6.303 2.859,-11.684 4.518,-16.136 1.652,-4.459 3.311,-8.457 4.97,-11.987 1.652,-3.537 3.311,-6.383 4.97,-8.53 1.652,-2.153 3.163,-3.918 4.518,-5.301 1.356,-1.384 2.556,-2.385 3.615,-2.997 1.052,-0.619 1.878,-0.922 2.485,-0.922 3.007,0 6.925,6.606 11.747,19.824 2.711,7.377 6.622,19.977 11.747,37.806 7.83,27.964 14.303,47.789 19.428,59.474 1.504,3.378 3.841,4.38 7.004,2.996 3.162,-1.382 4.137,-3.767 2.937,-7.146 -5.126,-11.374 -11.451,-30.738 -18.977,-58.09 -5.125,-17.83 -8.888,-30.429 -11.295,-37.806 v -0.461 h -0.452 c -8.74,-25.515 -18.828,-38.266 -30.272,-38.266 -15.362,0 -28.768,12.52 -40.212,37.575 -11.45,25.047 -17.169,59.243 -17.169,102.581 0,36.573 3.163,71.302 9.488,104.195 -23.791,2.146 -43.374,12.138 -58.736,29.967 -2.407,2.766 -2.259,5.374 0.452,7.838 2.711,2.457 5.273,2.305 7.681,-0.461 13.858,-15.985 31.331,-24.896 52.411,-26.741 9.636,45.795 23.494,83.29 41.567,112.494 2.711,4.61 6.17,7.758 10.392,9.451 4.215,1.686 8.133,1.456 11.747,-0.691 3.311,-1.844 5.422,-4.841 6.326,-8.99 0.903,-4.15 0,-9.913 -2.711,-17.289 -0.904,-1.542 -2.26,-4.308 -4.067,-8.299 -13.858,-29.204 -23.946,-57.788 -30.272,-85.753 21.081,1.844 49.849,8.601 86.298,20.285 15.658,4.914 27.935,8.601 36.823,11.065 8.881,2.457 21.01,4.993 36.371,7.607 15.362,2.608 30.42,3.919 45.182,3.919 17.169,0 33.809,-3.306 49.926,-9.912 C -16.195,20.819 -5.422,11.677 0,0"
       style="fill:#ffffff;fill-opacity:1;fill-rule:nonzero;stroke:none"
       transform="matrix(1.3333333,0,0,-1.3333333,2023.5308,335.72773)"
       clip-path="url(#clipPath21)" /><path
       id="path22"
       d="m 0,0 v -0.461 c 0,-1.844 -0.304,-3.538 -0.904,-5.072 -2.711,-10.452 -9.94,-21.366 -21.687,-32.734 -0.904,-0.921 -2.034,-1.382 -3.389,-1.382 -1.355,0 -2.64,0.461 -3.84,1.382 -2.415,2.457 -2.415,4.913 0,7.377 5.118,4.913 9.333,9.833 12.651,14.753 -3.918,0.303 -7.229,1.996 -9.94,5.072 -2.711,3.068 -4.067,6.606 -4.067,10.604 0,4.3 1.504,7.989 4.518,11.065 3.008,3.068 6.622,4.61 10.844,4.61 4.215,0 7.829,-1.463 10.844,-4.38 C -1.963,7.91 -0.304,4.3 0,0"
       style="fill:#ffffff;fill-opacity:1;fill-rule:nonzero;stroke:none"
       transform="matrix(1.3333333,0,0,-1.3333333,1794.6049,207.86573)"
       clip-path="url(#clipPath23)" /><path
       id="path24"
       d="m 0,0 c 4.214,0.303 7.907,1.686 11.069,4.149 3.163,2.457 5.571,5.454 7.229,8.991 1.653,3.53 2.486,7.146 2.486,10.834 0,10.755 -2.867,20.128 -8.585,28.124 C 2.259,46.255 -5.048,40.644 -9.714,35.27 c -4.674,-5.381 -7.003,-11.296 -7.003,-17.75 0,-4.611 1.355,-8.688 4.066,-12.218 C -9.94,1.765 -6.177,0 -1.355,0 Z m 116.569,128.63 c 2.408,-2.766 2.259,-5.381 -0.452,-7.838 -20.183,-17.829 -45.937,-35.5 -77.261,-53.019 6.022,-9.221 9.037,-18.752 9.037,-28.585 0,-4.919 -0.756,-10.07 -2.259,-15.444 -1.511,-5.381 -3.996,-10.763 -7.455,-16.137 -3.467,-5.381 -8.662,-9.84 -15.588,-13.37 -6.933,-3.529 -14.91,-5.301 -23.946,-5.301 -7.837,0 -14.162,2.845 -18.977,8.528 -4.822,5.684 -7.229,12.369 -7.229,20.056 0,8.601 2.711,16.208 8.133,22.821 5.422,6.606 13.554,13.291 24.398,20.055 -3.014,3.069 -7.985,7.219 -14.91,12.448 -5.422,4.301 -9.643,7.759 -12.651,10.374 -3.014,2.608 -6.552,6.375 -10.617,11.295 -4.067,4.913 -7.004,10.374 -8.811,16.367 -1.808,5.994 -2.711,12.52 -2.711,19.594 0,11.987 5.492,23.586 16.491,34.809 10.992,11.216 24.921,16.828 41.794,16.828 11.14,0 20.931,-2.075 29.368,-6.224 8.429,-4.15 14.606,-9.913 18.524,-17.289 0,-0.31 0.148,-0.62 0.452,-0.922 v -1.844 -1.153 c 0,-0.158 -0.155,-0.389 -0.452,-0.692 v -0.461 l -0.451,-0.461 v -0.461 h -0.453 v -0.461 l -0.451,-0.461 -0.452,-0.461 h -0.904 l -0.451,-0.461 h -1.808 -0.678 -0.677 c -0.304,0 -0.452,0.151 -0.452,0.461 h -0.904 v 0.461 h -0.452 c -9.036,7.377 -17.621,11.065 -25.753,11.065 -12.051,0 -21.313,-3.458 -27.787,-10.373 -6.481,-6.916 -9.714,-13.759 -9.714,-20.517 0,-5.23 1.426,-10.373 4.292,-15.444 2.859,-5.072 5.718,-9.149 8.585,-12.218 2.859,-3.076 7.299,-7.225 13.328,-12.448 7.23,-6.455 12.496,-11.526 15.814,-15.214 31.627,17.822 57.226,35.341 76.809,52.558 2.711,2.457 5.267,2.305 7.681,-0.461"
       style="fill:#ffffff;fill-opacity:1;fill-rule:nonzero;stroke:none"
       transform="matrix(1.3333333,0,0,-1.3333333,1878.3368,668.90547)"
       clip-path="url(#clipPath25)" /><path
       id="path26"
       d="m 0,0 c -30.123,-11.065 -55.199,-22.67 -75.228,-34.809 -20.035,-12.145 -30.045,-23.901 -30.045,-35.269 0,-2.464 0.295,-4.769 0.903,-6.916 1.2,-3.385 3.841,-6.224 7.907,-8.529 4.067,-2.305 8.811,-3.998 14.233,-5.071 5.421,-1.081 10.991,-1.614 16.716,-1.614 h 0.452 c 18.673,0 35.842,6.757 51.507,20.286 C 2.104,-58.401 9.94,-42.416 9.94,-23.974 9.94,-15.675 6.622,-7.687 0,0 m 92.171,36.422 c 3.614,0.612 5.719,-0.85 6.325,-4.38 0.601,-3.537 -0.903,-5.611 -4.517,-6.224 -16.266,-2.464 -37.501,-7.686 -63.708,-15.675 6.623,-8.609 10.089,-18.6 10.393,-29.968 0.296,-22.439 -6.326,-40.73 -19.88,-54.863 -18.976,-19.983 -48.345,-29.968 -88.105,-29.968 -12.954,0 -23.494,2.154 -31.627,6.455 -7.836,3.991 -12.954,9.681 -15.362,17.058 l -0.452,0.461 c -0.903,3.379 -1.355,6.916 -1.355,10.604 0,24.277 30.723,48.56 92.171,72.844 5.118,1.844 10.236,3.689 15.361,5.533 -7.228,6.144 -20.938,14.753 -41.115,25.818 -10.547,5.835 -18.525,10.373 -23.946,13.6 -5.422,3.228 -11.826,7.759 -19.203,13.601 -7.384,5.835 -13.032,11.678 -16.943,17.52 -11.45,13.521 -17.621,29.967 -18.524,49.331 -0.904,16.9 2.633,34.808 10.618,53.711 7.977,18.903 19.35,36.191 34.112,51.867 24.095,25.818 48.041,38.727 71.839,38.727 8.133,0 15.433,-1.383 21.913,-4.149 6.474,-2.766 11.974,-7.075 16.491,-12.909 8.734,-10.453 14.155,-25.818 16.266,-46.104 2.103,-20.286 0.599,-45.492 -4.519,-75.611 -0.606,-3.386 -2.639,-4.768 -6.099,-4.149 -3.466,0.612 -4.9,2.608 -4.292,5.993 4.814,28.585 6.17,52.71 4.066,72.384 v 0.461 c -1.511,14.133 -5.125,24.435 -10.844,30.889 -5.725,6.455 -14.006,9.682 -24.849,9.682 -5.422,0 -11.974,-1.772 -19.655,-5.302 -7.68,-3.537 -15.665,-8.76 -23.946,-15.675 -8.288,-6.916 -15.969,-14.984 -23.043,-24.205 -7.081,-9.22 -12.954,-20.214 -17.621,-32.964 -4.673,-12.758 -7.003,-25.746 -7.003,-38.958 0,-8.298 1.278,-16.136 3.841,-23.513 2.556,-7.377 6.395,-14.22 11.521,-20.516 5.119,-6.303 10.088,-11.757 14.91,-16.367 4.815,-4.61 11.14,-9.379 18.976,-14.292 7.829,-4.92 14.155,-8.688 18.977,-11.295 4.814,-2.616 11.296,-5.922 19.428,-9.913 8.733,-3.688 15.961,-7.535 21.687,-11.526 h 0.452 c 1.504,-1.232 2.86,-2.305 4.067,-3.227 0.903,-0.62 1.955,-1.383 3.163,-2.306 30.116,9.222 53.462,15.056 70.031,17.52"
       style="fill:#ffffff;fill-opacity:1;fill-rule:nonzero;stroke:none"
       transform="matrix(1.3333333,0,0,-1.3333333,2382.5536,543.50253)"
       clip-path="url(#clipPath27)" /><path
       id="path28"
       d="m 0,0 c -6.933,0 -14.613,-6.152 -23.043,-18.441 -8.436,-12.297 -16.194,-27.893 -23.269,-46.796 -7.081,-18.903 -13.18,-40.881 -18.298,-65.929 -5.125,-25.054 -7.985,-49.41 -8.584,-73.074 17.768,18.744 34.938,45.945 51.507,81.604 13.25,28.584 22.139,54.244 26.657,76.993 v 0.922 l 0.452,0.922 c 1.2,6.145 1.955,11.987 2.259,17.52 C 7.978,-14.292 6.474,-6.152 3.163,-1.844 2.259,-0.62 1.2,0 0,0 m 96.237,-218.763 c 3.311,-1.383 4.215,-3.768 2.711,-7.146 -0.303,-1.232 -1.058,-3.076 -2.258,-5.532 -19.281,-45.802 -36.301,-79.148 -51.056,-100.046 -1.808,-2.766 -3.77,-5.381 -5.874,-7.838 -0.304,-0.31 -0.607,-0.619 -0.904,-0.922 -10.843,-13.219 -20.939,-19.824 -30.271,-19.824 -6.933,0 -12.503,2.535 -16.718,7.607 -4.221,5.071 -6.707,13.211 -7.455,24.435 -0.755,11.216 -0.678,21.359 0.227,30.428 0.903,9.062 2.71,22.202 5.421,39.419 1.503,9.523 2.555,16.828 3.163,21.899 0.6,5.072 1.278,11.368 2.033,18.903 0.748,7.528 0.826,13.442 0.225,17.75 -0.606,4.301 -1.658,7.377 -3.162,9.221 -0.607,0.922 -1.659,1.383 -3.163,1.383 -7.836,0 -16.872,-10.834 -27.109,-32.503 -10.243,-21.669 -19.428,-49.721 -27.561,-84.14 0,-3.386 -1.355,-6.613 -4.066,-9.682 -3.614,-3.688 -7.532,-5.691 -11.747,-5.993 h -0.452 c -7.229,0 -11.896,5.071 -14.006,15.214 -11.141,51.327 -12.348,106.961 -3.615,166.896 8.733,59.935 24.243,104.195 46.538,132.779 12.947,16.288 26.953,24.435 42.018,24.435 14.458,0 23.643,-7.686 27.562,-23.051 1.503,-5.533 2.103,-12.297 1.806,-20.286 -0.303,-7.377 -1.207,-14.451 -2.711,-21.208 -4.517,-23.671 -13.709,-50.563 -27.56,-80.682 -20.184,-43.337 -40.664,-74.076 -61.447,-92.208 0,-17.216 1.355,-36.119 4.066,-56.708 20.176,73.457 43.975,110.189 71.387,110.189 8.133,0 14.459,-2.925 18.976,-8.76 4.519,-5.532 7.075,-14.22 7.681,-26.049 0.601,-11.835 0.227,-22.439 -1.129,-31.811 -1.355,-9.38 -3.692,-22.98 -7.004,-40.802 -1.806,-9.531 -3.092,-16.828 -3.84,-21.899 -0.756,-5.072 -1.659,-11.296 -2.711,-18.673 -1.058,-7.376 -1.355,-13.219 -0.903,-17.519 0.451,-4.308 1.277,-7.225 2.484,-8.76 0.905,-0.922 1.957,-1.383 3.164,-1.383 3.006,0 7.073,2.918 12.199,8.76 2.103,3.069 4.517,6.454 7.228,10.142 v 0.462 c 0.297,0 0.452,0.151 0.452,0.461 14.155,20.588 30.117,52.097 47.893,94.513 0.903,2.146 1.652,3.991 2.259,5.532 1.504,3.379 3.911,4.38 7.229,2.997"
       style="fill:#ffffff;fill-opacity:1;fill-rule:nonzero;stroke:none"
       transform="matrix(1.3333333,0,0,-1.3333333,2621.1108,203.56307)"
       clip-path="url(#clipPath29)" /><path
       id="path30"
       d="m 0,0 c -12.65,-8.918 -21.235,-26.128 -25.754,-51.637 10.844,6.145 20.255,13.522 28.239,22.13 7.978,8.602 12.121,17.21 12.425,25.819 C 14.91,0 13.555,2.305 10.844,3.227 8.133,4.149 4.519,3.068 0,0 m 88.557,-32.042 c 3.006,-2.003 3.614,-4.539 1.806,-7.607 -6.931,-10.763 -12.65,-19.292 -17.169,-25.588 -4.517,-6.304 -10.695,-14.523 -18.524,-24.666 -7.836,-10.143 -15.588,-18.521 -23.269,-25.126 -7.68,-6.614 -15.291,-11.606 -22.816,-14.984 -0.607,-0.31 -1.207,-0.62 -1.808,-0.923 -5.725,-2.153 -11.295,-3.227 -16.716,-3.227 -12.956,0 -25.077,6.145 -36.373,18.442 -11.294,12.289 -16.943,29.507 -16.943,51.637 0,26.43 6.1,47.177 18.299,62.24 12.199,15.055 26.432,22.591 42.697,22.591 7.526,0 13.851,-1.845 18.977,-5.533 6.021,-4.308 9.036,-10.453 9.036,-18.442 v -0.46 C 25.45,-16.295 19.803,-28.052 8.811,-38.958 -2.188,-49.872 -14.31,-58.552 -27.561,-65.007 c -0.303,-4.92 -0.452,-10.142 -0.452,-15.675 0,-17.217 3.911,-28.894 11.747,-35.039 5.719,-4.611 12.496,-6.152 20.332,-4.611 5.422,2.457 11.296,6.376 17.621,11.757 6.326,5.374 11.896,10.755 16.717,16.137 4.816,5.374 10.315,12.289 16.492,20.746 6.17,8.45 10.843,14.984 14.006,19.594 3.163,4.611 7.3,10.756 12.425,18.442 1.808,3.069 4.215,3.609 7.23,1.614"
       style="fill:#ffffff;fill-opacity:1;fill-rule:nonzero;stroke:none"
       transform="matrix(1.3333333,0,0,-1.3333333,2805.4496,453.13853)"
       clip-path="url(#clipPath31)" /><path
       id="path32"
       d="m 0,0 c 0.903,7.376 0.148,12.599 -2.259,15.675 -1.208,1.534 -2.866,2.305 -4.97,2.305 -3.615,0 -7.985,-2.463 -13.103,-7.376 -5.125,-4.92 -10.772,-12.528 -16.943,-22.822 -6.177,-10.301 -11.825,-22.36 -16.943,-36.191 -5.126,-13.832 -9.566,-30.969 -13.329,-51.406 -3.769,-20.444 -5.803,-42.034 -6.099,-64.776 15.961,26.12 30.793,53.25 44.503,81.373 13.704,28.124 22.663,51.557 26.884,70.309 0,0.612 0.148,1.073 0.451,1.383 0.601,2.456 1.052,4.761 1.356,6.915 C -0.155,-3.076 0,-1.542 0,0 m -131.479,-268.786 c 8.429,11.368 16.414,27.043 23.946,47.026 -0.607,14.134 -0.904,29.045 -0.904,44.721 v 7.376 c -0.303,0.613 -0.607,1.074 -0.903,1.384 -0.904,1.224 -1.963,2.456 -3.163,3.688 -2.414,1.224 -5.577,1.383 -9.488,0.461 -11.747,-3.386 -23.269,-13.601 -34.564,-30.659 -11.296,-17.059 -16.943,-35.889 -16.943,-56.478 0,-10.452 2.033,-18.751 6.1,-24.896 4.066,-6.151 8.054,-9.22 11.972,-9.22 6.926,0 14.91,5.532 23.947,16.597 M 11.296,6.454 c 0,-5.842 -0.904,-12.758 -2.711,-20.746 v -0.461 c -4.822,-20.596 -15.362,-47.488 -31.628,-80.683 -15.065,-30.126 -31.931,-59.935 -50.603,-89.441 0,-22.13 0.677,-41.494 2.033,-58.091 1.355,-16.597 2.781,-29.125 4.292,-37.574 1.504,-8.458 3.311,-15.215 5.422,-20.286 2.104,-5.072 3.911,-8.148 5.421,-9.221 1.504,-1.08 2.86,-1.614 4.067,-1.614 1.2,0 3.311,2.306 6.325,6.916 v 0.461 c 0.904,1.535 1.808,3.069 2.711,4.61 0.297,0.303 0.452,0.613 0.452,0.923 l 0.452,1.382 c 1.2,1.845 2.259,3.84 3.162,5.994 7.83,15.978 18.526,41.032 32.08,75.149 0,0.613 0.677,2.608 2.033,5.994 1.355,3.379 2.33,5.835 2.937,7.377 1.503,3.378 3.911,4.379 7.229,2.996 3.311,-1.383 4.363,-3.767 3.163,-7.146 -1.207,-2.154 -3.015,-6.613 -5.422,-13.37 -15.665,-39.959 -28.013,-68.234 -37.049,-84.831 v -0.461 c -0.904,-1.844 -1.808,-3.386 -2.711,-4.611 -11.451,-20.595 -21.687,-30.889 -30.723,-30.889 -15.363,0 -26.362,17.21 -32.984,51.636 -2.11,12.29 -3.918,26.582 -5.422,42.877 -3.614,-7.996 -7.384,-15.215 -11.295,-21.669 -15.065,-22.749 -32.234,-34.117 -51.507,-34.117 -4.518,0 -8.966,0.994 -13.329,2.997 -4.37,1.995 -8.513,4.992 -12.424,8.99 -3.912,3.991 -7.004,9.682 -9.263,17.059 -2.259,7.376 -3.389,15.978 -3.389,25.818 0,24.896 8.211,47.789 24.624,68.695 16.414,20.898 33.054,31.35 49.926,31.35 10.54,0 18.821,-2.305 24.851,-6.915 2.407,49.482 11.139,91.898 26.205,127.246 9.036,20.589 19.273,36.343 30.723,47.257 11.445,10.906 23.495,16.367 36.146,16.367 10.844,0 18.369,-4.308 22.591,-12.909 2.103,-4.308 3.311,-9.682 3.615,-16.137 v -0.46 z"
       style="fill:#ffffff;fill-opacity:1;fill-rule:nonzero;stroke:none"
       transform="matrix(1.3333333,0,0,-1.3333333,3167.4991,228.76613)"
       clip-path="url(#clipPath33)" /></g></svg>
